<svg xmlns="http://www.w3.org/2000/svg" viewBox="0 0 49.72 56.26"><defs><style>.cls-1{fill:#fff;}</style></defs><title>airbnb</title><g id="Layer_2" data-name="Layer 2"><g id="logos"><g id="_2K" data-name="2K"><g id="airbnb"><path class="cls-1" d="M24.8,32.72a22.25,22.25,0,0,1-3.28,3,11.41,11.41,0,0,1-4.46,2.08,8.14,8.14,0,0,1-9.59-5.7,7.83,7.83,0,0,1,.27-5.23C8.4,25.23,9.13,23.62,9.88,22q2.71-5.69,5.5-11.36c1.09-2.21,2.24-4.4,3.38-6.59a8.37,8.37,0,0,1,2-2.62,6.34,6.34,0,0,1,8.85.74,12.55,12.55,0,0,1,1.72,2.73C33.15,8.46,35,12,36.68,15.53s3.3,7,4.93,10.49a9.58,9.58,0,0,1,.82,2.78,7.8,7.8,0,0,1-1.11,5.29,7.91,7.91,0,0,1-5.93,3.82,9,9,0,0,1-5-.87,15.27,15.27,0,0,1-4-2.86C25.8,33.7,25.31,33.22,24.8,32.72ZM23.22,31l-.5-.64a24.24,24.24,0,0,1-3.51-5.86,10.3,10.3,0,0,1-.81-5A6,6,0,0,1,19.93,16a6.44,6.44,0,0,1,5.87-2,6.19,6.19,0,0,1,5.52,6.09,10.32,10.32,0,0,1-.54,3.49,20.25,20.25,0,0,1-2.7,5.2c-.52.75-1.07,1.46-1.62,2.21l.72.77a16,16,0,0,0,3.64,2.93,7.11,7.11,0,0,0,3.84,1,5.66,5.66,0,0,0,5.41-6.49,8.36,8.36,0,0,0-.77-2.39c-2.07-4.61-4.25-9.16-6.5-13.69Q31.11,9.74,29.37,6.4A16,16,0,0,0,28,4.07a3.87,3.87,0,0,0-5.44-.88A5.35,5.35,0,0,0,21,5.1c-.87,1.64-1.74,3.28-2.56,4.94q-2.84,5.72-5.61,11.47c-.93,1.94-1.81,3.9-2.69,5.86a6.14,6.14,0,0,0-.54,3.48,5.69,5.69,0,0,0,5.68,4.85,6.38,6.38,0,0,0,2.65-.57A15.71,15.71,0,0,0,23.22,31ZM24.83,29l.3-.38a22.55,22.55,0,0,0,2.93-4.84,8.07,8.07,0,0,0,.78-4,3.55,3.55,0,0,0-1.39-2.59,4.21,4.21,0,0,0-4.12-.6,3.51,3.51,0,0,0-2.42,2.71A5.92,5.92,0,0,0,21,22a13.12,13.12,0,0,0,1.33,3.3A27,27,0,0,0,24.83,29Z"/><path class="cls-1" d="M20.79,56V42.65h2.29v5l.14-.11a3.24,3.24,0,0,1,2.51-.8,4.52,4.52,0,0,1,4.29,4A4.7,4.7,0,0,1,28.66,55a4.33,4.33,0,0,1-4.41,1.09,2.66,2.66,0,0,1-1.16-.76v.39a.31.31,0,0,1-.31.33C22.12,56,21.46,56,20.79,56Zm2.3-4.53c0,.42,0,.85,0,1.27a.75.75,0,0,0,.32.67,2.6,2.6,0,0,0,2.91.38,2.35,2.35,0,0,0,1.43-2.37,2.39,2.39,0,0,0-1.59-2.34,2.64,2.64,0,0,0-2.95.65.61.61,0,0,0-.11.29C23.08,50.51,23.09,51,23.09,51.48Z"/><path class="cls-1" d="M42.74,47.59A6,6,0,0,1,43.9,47a4.27,4.27,0,0,1,4.26.93A4.46,4.46,0,0,1,49.7,51.1a4.78,4.78,0,0,1-1.08,3.54,4.47,4.47,0,0,1-4.69,1.41,6.4,6.4,0,0,1-1-.6l-.16-.14c0,.16,0,.27,0,.39a.3.3,0,0,1-.3.31c-.66,0-1.32,0-2,0V42.65h2.28Zm0,3.88c0,.47,0,.94,0,1.4a.61.61,0,0,0,.15.39,2.67,2.67,0,0,0,3.24.46,2.6,2.6,0,0,0-.35-4.64,2.65,2.65,0,0,0-2.93.66.55.55,0,0,0-.11.31C42.73,50.52,42.74,51,42.74,51.47Z"/><path class="cls-1" d="M7,47.63l0-.06c0-.59,0-.6.64-.6H9.26v9H7.41C7.09,56,7,55.9,7,55.58v-.22H6.91a3.17,3.17,0,0,1-2.52.88A4.57,4.57,0,0,1,0,52a4.87,4.87,0,0,1,1.22-3.84A4.49,4.49,0,0,1,5.8,46.94a3.41,3.41,0,0,1,.61.29A6.25,6.25,0,0,1,7,47.63Zm0,3.84c0-.47,0-.95,0-1.42a.55.55,0,0,0-.12-.33,2.51,2.51,0,0,0-1.78-.82,2.55,2.55,0,0,0-2.67,3.23,2.48,2.48,0,0,0,2.32,1.92,2.51,2.51,0,0,0,2.13-.8A.62.62,0,0,0,7,52.9C7,52.42,7,52,7,51.47Z"/><path class="cls-1" d="M37,56V50.74a5,5,0,0,0-.09-.78,1.32,1.32,0,0,0-1.15-1.09,2.51,2.51,0,0,0-2.21.68.47.47,0,0,0-.17.38c0,1.93,0,3.86,0,5.79V56H31V47h1.71c.36,0,.45.1.45.46v.17A9.54,9.54,0,0,1,34.34,47a3.88,3.88,0,0,1,4.3,1.17,3.14,3.14,0,0,1,.61,1.93c0,2,0,3.95,0,5.94Z"/><path class="cls-1" d="M14.43,47h2a.32.32,0,0,1,.32.34v.35a3.2,3.2,0,0,1,3.11-.82v2.07c-.46,0-.92-.07-1.37-.05a2.43,2.43,0,0,0-1.58.67.47.47,0,0,0-.17.38c0,1.93,0,3.87,0,5.8V56h-2.3Z"/><path class="cls-1" d="M10.7,47l.16,0H13v9H10.7Z"/><path class="cls-1" d="M11.86,42.63a1.53,1.53,0,0,1,1.55,1.56,1.56,1.56,0,0,1-1.55,1.56,1.58,1.58,0,0,1-1.57-1.57A1.56,1.56,0,0,1,11.86,42.63Z"/></g></g></g></g></svg>