<?xml version="1.0" encoding="utf-8"?>
<!-- Generator: Adobe Illustrator 22.1.0, SVG Export Plug-In . SVG Version: 6.00 Build 0)  -->
<svg version="1.1" id="Layer_1" xmlns="http://www.w3.org/2000/svg" xmlns:xlink="http://www.w3.org/1999/xlink" x="0px" y="0px"
	 viewBox="0 0 217.4 246" style="enable-background:new 0 0 217.4 246;" xml:space="preserve">
<style type="text/css">
	.st0{fill:#3EC5F3;}
	.st1{fill:#EE2C42;}
</style>
<g>
	<g>
		<path class="st0" d="M41.3,207.1h-7.7v-19H41c3.5,0,5.7,2,5.7,5.2c0,2.1-1.3,3.5-2.6,4c1.5,0.6,2.9,2,2.9,4.4
			C47,205.2,44.7,207.1,41.3,207.1z M40.7,190.6h-4.3v5.4h4.3c1.8,0,3.1-1,3.1-2.7S42.7,190.6,40.7,190.6z M41,198.7h-4.5v5.8H41
			c2,0,3.1-1.2,3.1-2.9C44.2,199.9,43,198.7,41,198.7z"/>
		<path class="st0" d="M61,207.1l-4-8h-3.6v8h-2.9v-19h7.4c3.6,0,5.9,2.3,5.9,5.6c0,2.7-1.7,4.5-3.8,5l4.4,8.4H61z M57.5,190.6h-4.2
			v6h4.3c1.9,0,3.2-1.1,3.2-3C60.8,191.8,59.5,190.6,57.5,190.6z"/>
		<path class="st0" d="M67.1,207.1v-19H70v19H67.1z"/>
		<path class="st0" d="M85.3,205.1c-1.4,1.5-3.2,2.2-5.2,2.2s-3.7-0.7-5-2c-1.9-1.9-1.8-4-1.8-7.6c0-3.7,0-5.8,1.8-7.6
			c1.3-1.3,3-2,5-2c4,0,6.4,2.6,6.9,5.9h-2.9c-0.5-2.1-1.9-3.3-4-3.3c-1.1,0-2.1,0.5-2.8,1.2c-0.9,1-1.1,2.1-1.1,5.9
			c0,3.8,0.2,4.9,1.1,5.9c0.7,0.7,1.7,1.1,2.8,1.1c1.3,0,2.3-0.5,3.1-1.3c0.7-0.8,1-1.8,1-3v-1.1h-4.1v-2.5H87v2.9
			C87.1,202.2,86.6,203.7,85.3,205.1z"/>
		<path class="st0" d="M101,207.1v-8.3h-7.7v8.3h-2.9v-19h2.9v8.1h7.7v-8.1h2.9v19H101z"/>
		<path class="st0" d="M114.3,190.6V207h-2.9v-16.4h-5.2V188h13.3v2.6H114.3z"/>
		<path class="st0" d="M127.1,207.2c-2.9,0-4.9-0.7-6.7-2.5l1.9-1.9c1.4,1.4,2.9,1.8,4.9,1.8c2.5,0,3.9-1.1,3.9-2.9
			c0-0.8-0.2-1.5-0.7-2s-1-0.6-2.1-0.8l-2.2-0.3c-1.5-0.2-2.8-0.7-3.6-1.5c-0.9-0.9-1.4-2.1-1.4-3.6c0-3.3,2.4-5.6,6.4-5.6
			c2.5,0,4.3,0.6,5.9,2.2l-1.8,1.8c-1.2-1.1-2.5-1.5-4.1-1.5c-2.2,0-3.5,1.3-3.5,3c0,0.7,0.2,1.3,0.7,1.8c0.5,0.4,1.3,0.7,2.1,0.9
			l2.2,0.3c1.8,0.3,2.7,0.7,3.5,1.4c1,0.9,1.5,2.3,1.5,3.9C134,205.1,131.1,207.2,127.1,207.2z"/>
		<path class="st0" d="M143.9,199.6h-4.3v7.5h-2.9v-19h7.2c3.7,0,6.1,2.5,6.1,5.8C150,197.1,147.6,199.6,143.9,199.6z M143.6,190.6
			h-4.2v6.3h4.2c2,0,3.4-1.1,3.4-3.1C147.1,191.8,145.6,190.6,143.6,190.6z"/>
		<path class="st0" d="M178.5,190.6V207h-2.9v-16.4h-5.2V188h13.3v2.6H178.5z"/>
	</g>
	<path class="st1" d="M160.8,190.7c3.7,0,6.8,3,6.8,6.8c0,3.7-3,6.8-6.8,6.8c-3.7,0-6.8-3-6.8-6.8C154,193.8,157,190.7,160.8,190.7
		 M160.8,188c-5.2,0-9.5,4.3-9.5,9.5s4.3,9.5,9.5,9.5s9.5-4.3,9.5-9.5S166,188,160.8,188L160.8,188z"/>
</g>
<g>
	<path class="st0" d="M190.4,192.3c-0.5,0.5-1.1,0.8-1.8,0.8s-1.3-0.3-1.8-0.8s-0.7-1.1-0.7-1.8s0.2-1.3,0.8-1.8
		c0.5-0.5,1.1-0.7,1.8-0.7c0.7,0,1.3,0.2,1.8,0.7s0.8,1.1,0.8,1.8C191.1,191.2,190.9,191.8,190.4,192.3z M187,188.9
		c-0.4,0.4-0.6,0.9-0.6,1.6c0,0.6,0.2,1.1,0.6,1.6c0.4,0.4,0.9,0.6,1.6,0.6s1.1-0.2,1.6-0.6s0.6-1,0.6-1.6s-0.2-1.1-0.6-1.6
		c-0.4-0.4-1-0.6-1.6-0.6C188,188.3,187.5,188.5,187,188.9z M188.6,189c0.3,0,0.6,0,0.8,0.1c0.3,0.1,0.4,0.4,0.4,0.7
		s-0.1,0.4-0.3,0.6c-0.1,0.1-0.2,0.1-0.4,0.1c0.2,0,0.4,0.1,0.5,0.3c0.1,0.1,0.2,0.3,0.2,0.4v0.2c0,0.1,0,0.1,0,0.2s0,0.1,0,0.1l0,0
		h-0.5l0,0l0,0v-0.1v-0.2c0-0.3-0.1-0.5-0.3-0.6c-0.1-0.1-0.3-0.1-0.6-0.1H188v1.1h-0.5V189H188.6z M189.1,189.5
		c-0.1-0.1-0.3-0.1-0.6-0.1h-0.4v1h0.4c0.2,0,0.4,0,0.5-0.1c0.2-0.1,0.3-0.2,0.3-0.4S189.1,189.6,189.1,189.5z"/>
</g>
<path class="st1" d="M108.6,43.9c29.6,0,53.6,24.1,53.6,53.6c0,29.6-24.1,53.6-53.6,53.6C79,151.1,55,127,55,97.5
	C55,68,79.1,43.9,108.6,43.9 M108.6,22.6c-41.4,0-75,33.6-75,75c0,41.4,33.6,75,75,75s75-33.6,75-75
	C183.6,56.2,150.1,22.6,108.6,22.6L108.6,22.6z"/>
</svg>
